<?xml version="1.0" standalone="no"?>
<!DOCTYPE svg PUBLIC "-//W3C//DTD SVG 20010904//EN"
 "http://www.w3.org/TR/2001/REC-SVG-20010904/DTD/svg10.dtd">
<svg version="1.0" xmlns="http://www.w3.org/2000/svg"
 width="1024.000000pt" height="1536.000000pt" viewBox="0 0 1024.000000 1536.000000"
 preserveAspectRatio="xMidYMid meet">

<g transform="translate(0.000000,1536.000000) scale(0.100000,-0.100000)"
fill="#000000" stroke="none">
<path d="M0 7680 l0 -7680 5120 0 5120 0 0 7680 0 7680 -5120 0 -5120 0 0
-7680z m3220 -2860 l0 -230 195 0 195 0 0 230 0 230 110 0 110 0 0 -575 0
-575 -110 0 -110 0 0 245 0 245 -195 0 -195 0 0 -245 0 -245 -110 0 -110 0 0
575 0 575 110 0 110 0 0 -230z m1440 0 c38 -124 111 -371 164 -550 53 -179
101 -335 106 -347 l10 -23 -118 0 -118 0 -18 68 c-9 37 -22 84 -27 105 l-10
37 -183 0 -183 0 -28 -105 -28 -105 -114 0 c-104 0 -114 2 -109 18 3 9 43 145
90 302 139 470 226 763 237 798 l11 33 125 -3 126 -3 67 -225z m987 215 c65
-19 145 -89 168 -147 11 -28 17 -72 17 -125 1 -106 -25 -161 -99 -217 l-53
-39 48 -22 c60 -29 107 -78 127 -134 19 -55 19 -163 0 -227 -20 -68 -72 -147
-91 -140 -8 3 -13 2 -10 -3 9 -13 -28 -41 -83 -62 -46 -17 -78 -19 -316 -19
l-265 0 0 575 0 575 253 0 c197 0 265 -3 304 -15z m623 -560 l0 -575 -110 0
-110 0 0 575 0 575 110 0 110 0 0 -575z m925 480 l0 -95 -137 0 -138 0 0 -480
0 -480 -110 0 -110 0 0 480 0 480 -135 0 -135 0 0 95 0 95 383 0 382 0 0 -95z
m-1892 -1375 c30 -11 75 -38 99 -60 51 -44 105 -138 113 -196 2 -21 7 -54 9
-71 l4 -33 -112 0 -112 0 -12 60 c-23 108 -101 161 -206 138 -65 -14 -106 -55
-132 -134 -16 -51 -19 -89 -19 -269 0 -180 3 -218 19 -265 26 -77 52 -109 104
-132 97 -43 198 11 229 124 l16 58 115 0 115 0 -7 -57 c-9 -75 -44 -150 -96
-207 -43 -46 -80 -66 -44 -23 l19 22 -22 -19 c-12 -10 -21 -23 -20 -29 4 -19
-109 -57 -185 -63 -132 -11 -263 31 -342 109 -92 93 -125 201 -133 442 -6 193
9 311 51 407 28 64 83 131 99 121 5 -3 7 -1 4 4 -15 23 86 78 172 93 72 14
212 3 274 -20z m-2653 -85 l0 -95 -132 0 -133 0 3 -480 2 -480 -110 0 -110 0
0 480 0 480 -140 0 -140 0 0 95 0 95 380 0 380 0 0 -95z m720 64 c77 -36 115
-71 147 -137 26 -53 28 -65 28 -182 0 -110 -3 -131 -24 -177 -26 -58 -78 -111
-140 -142 -39 -20 -64 -44 -40 -39 6 2 62 -94 125 -217 63 -121 114 -221 114
-222 0 -2 -54 -3 -121 -3 -120 0 -120 0 -114 23 4 15 3 18 -3 8 -10 -14 -45
54 -147 287 l-50 112 -62 0 -63 0 0 -215 0 -215 -110 0 -110 0 0 576 0 575
258 -3 c252 -3 258 -3 312 -29z m921 -11 c8 -32 185 -623 325 -1090 5 -16 -5
-18 -109 -18 l-115 0 -27 110 -27 110 -179 0 c-98 0 -180 -4 -183 -8 -3 -5
-17 -53 -31 -108 -15 -54 -28 -100 -30 -102 -1 -1 -52 -1 -112 0 l-110 3 84
280 c46 154 114 384 153 510 38 127 77 258 87 292 l18 63 122 0 122 0 12 -42z
m1642 -225 c-2 -215 0 -265 10 -251 6 9 83 130 170 268 l159 250 119 0 120 0
-34 -52 c-241 -382 -288 -460 -283 -474 6 -16 294 -536 328 -592 l20 -33 -128
3 -128 3 -39 75 c-108 207 -209 390 -216 390 -4 0 -29 -31 -55 -69 l-47 -69 3
-166 3 -166 -107 0 -108 0 0 575 0 575 108 0 107 0 -2 -267z m1377 172 l0 -95
-205 0 -205 0 0 -140 0 -140 178 0 177 0 0 -90 0 -90 -177 0 -178 0 0 -155 0
-155 210 0 210 0 0 -95 0 -95 -320 0 -320 0 0 575 0 575 315 0 315 0 0 -95z
m711 75 c35 -11 78 -31 94 -46 18 -15 23 -23 12 -20 -11 4 -16 2 -12 -5 4 -6
14 -8 22 -5 36 14 101 -111 110 -211 3 -38 0 -100 -6 -139 -13 -74 -49 -151
-70 -146 -7 1 -10 -2 -6 -8 8 -13 -41 -56 -82 -72 -18 -7 -33 -14 -33 -18 0
-3 54 -107 119 -232 l118 -228 -122 0 -122 0 -98 215 -98 215 -64 0 -64 0 3
-215 3 -215 -107 0 -108 0 0 575 0 575 224 0 c195 0 232 -3 287 -20z"/>
<path d="M4450 4753 c-7 -32 -37 -147 -66 -255 -30 -108 -54 -202 -54 -208 0
-6 48 -10 136 -10 l137 0 -6 33 c-10 50 -124 487 -129 492 -3 3 -11 -21 -18
-52z"/>
<path d="M5310 4725 l0 -145 97 0 c118 0 171 21 198 77 22 45 16 124 -12 161
-28 38 -74 51 -185 51 l-98 1 0 -145z"/>
<path d="M5310 4247 l0 -167 114 0 c101 0 117 2 146 23 58 39 75 70 75 142 0
116 -49 152 -224 162 l-111 6 0 -166z"/>
<path d="M6251 4114 c0 -11 3 -14 6 -6 3 7 2 16 -1 19 -3 4 -6 -2 -5 -13z"/>
<path d="M6252 3990 c0 -14 2 -19 5 -12 2 6 2 18 0 25 -3 6 -5 1 -5 -13z"/>
<path d="M6245 3920 c-3 -5 -1 -10 4 -10 6 0 11 5 11 10 0 6 -2 10 -4 10 -3 0
-8 -4 -11 -10z"/>
<path d="M5073 3583 c9 -2 23 -2 30 0 6 3 -1 5 -18 5 -16 0 -22 -2 -12 -5z"/>
<path d="M5138 3583 c7 -3 16 -2 19 1 4 3 -2 6 -13 5 -11 0 -14 -3 -6 -6z"/>
<path d="M5410 3486 c0 -2 8 -10 18 -17 15 -13 16 -12 3 4 -13 16 -21 21 -21
13z"/>
<path d="M4722 2855 c0 -16 2 -22 5 -12 2 9 2 23 0 30 -3 6 -5 -1 -5 -18z"/>
<path d="M4911 2854 c0 -11 3 -14 6 -6 3 7 2 16 -1 19 -3 4 -6 -2 -5 -13z"/>
<path d="M4732 2790 c0 -14 2 -19 5 -12 2 6 2 18 0 25 -3 6 -5 1 -5 -13z"/>
<path d="M5313 2784 c3 -3 47 -6 98 -5 65 1 95 -2 101 -11 5 -10 8 -8 8 5 0
15 -12 17 -107 17 -58 0 -104 -3 -100 -6z"/>
<path d="M5497 2730 c3 -11 7 -20 9 -20 2 0 4 9 4 20 0 11 -4 20 -9 20 -5 0
-7 -9 -4 -20z"/>
<path d="M5277 2676 c-17 -30 -17 -30 1 -10 10 11 24 23 32 26 12 4 12 5 -1
10 -10 4 -21 -5 -32 -26z"/>
<path d="M5492 2680 c0 -14 2 -19 5 -12 2 6 2 18 0 25 -3 6 -5 1 -5 -13z"/>
<path d="M4980 2646 c0 -2 7 -9 15 -16 13 -11 14 -10 9 4 -5 14 -24 23 -24 12z"/>
<path d="M4781 2634 c-1 -16 38 -64 52 -64 7 0 6 4 -3 10 -13 9 -13 11 0 21
12 8 11 9 -6 4 -15 -4 -24 1 -32 17 -6 13 -11 18 -11 12z"/>
<path d="M5027 2609 c7 -7 15 -10 18 -7 3 3 -2 9 -12 12 -14 6 -15 5 -6 -5z"/>
<path d="M5210 2610 c-9 -6 -10 -10 -3 -10 6 0 15 5 18 10 8 12 4 12 -15 0z"/>
<path d="M4949 2553 c-13 -16 -12 -17 4 -4 16 13 21 21 13 21 -2 0 -10 -8 -17
-17z"/>
<path d="M5233 2545 c0 -8 4 -12 9 -9 5 3 6 10 3 15 -9 13 -12 11 -12 -6z"/>
<path d="M4880 2516 c0 -2 12 -12 28 -21 l27 -18 -19 21 c-17 20 -36 29 -36
18z"/>
<path d="M5320 2480 c-9 -6 -10 -10 -3 -10 6 0 15 5 18 10 8 12 4 12 -15 0z"/>
<path d="M5265 2460 c-13 -6 -15 -9 -5 -9 8 0 22 4 30 9 18 12 2 12 -25 0z"/>
<path d="M2301 3524 c0 -11 3 -14 6 -6 3 7 2 16 -1 19 -3 4 -6 -2 -5 -13z"/>
<path d="M1916 3497 c3 -10 9 -15 12 -12 3 3 0 11 -7 18 -10 9 -11 8 -5 -6z"/>
<path d="M1949 3463 c-13 -16 -12 -17 4 -4 9 7 17 15 17 17 0 8 -8 3 -21 -13z"/>
<path d="M2029 3429 c-10 -6 -7 -9 14 -9 29 0 35 5 14 13 -8 3 -20 1 -28 -4z"/>
<path d="M2478 3423 c12 -2 30 -2 40 0 9 3 -1 5 -23 4 -22 0 -30 -2 -17 -4z"/>
<path d="M2180 3375 c0 -8 4 -15 10 -15 5 0 7 7 4 15 -4 8 -8 15 -10 15 -2 0
-4 -7 -4 -15z"/>
<path d="M2362 3370 c0 -14 2 -19 5 -12 2 6 2 18 0 25 -3 6 -5 1 -5 -13z"/>
<path d="M2183 3287 c0 -37 1 -67 2 -65 7 8 11 76 5 103 -4 20 -7 7 -7 -38z"/>
<path d="M2353 3285 c-6 -14 -7 -23 -3 -20 5 3 11 -5 13 -17 2 -13 5 -4 6 20
0 23 0 42 -1 42 -2 0 -8 -11 -15 -25z"/>
<path d="M2184 3120 c0 -52 1 -74 3 -47 2 26 2 68 0 95 -2 26 -3 4 -3 -48z"/>
<path d="M2357 3170 c-3 -11 -1 -20 4 -20 5 0 9 9 9 20 0 11 -2 20 -4 20 -2 0
-6 -9 -9 -20z"/>
<path d="M2306 3157 c3 -10 9 -15 12 -12 3 3 0 11 -7 18 -10 9 -11 8 -5 -6z"/>
<path d="M2361 3004 c0 -11 3 -14 6 -6 3 7 2 16 -1 19 -3 4 -6 -2 -5 -13z"/>
<path d="M2180 2935 c0 -32 2 -56 4 -54 8 8 10 98 3 105 -4 4 -7 -19 -7 -51z"/>
<path d="M2275 2970 c-3 -6 1 -7 9 -4 18 7 21 14 7 14 -6 0 -13 -4 -16 -10z"/>
<path d="M2362 2960 c0 -14 2 -19 5 -12 2 6 2 18 0 25 -3 6 -5 1 -5 -13z"/>
<path d="M2339 2873 c-12 -16 -12 -17 2 -6 9 7 20 9 24 5 5 -4 5 -1 1 6 -9 16
-11 15 -27 -5z"/>
<path d="M2180 2785 c0 -32 3 -55 7 -51 7 7 5 98 -3 105 -2 2 -4 -22 -4 -54z"/>
<path d="M2316 2788 c3 -5 10 -6 15 -3 13 9 11 12 -6 12 -8 0 -12 -4 -9 -9z"/>
<path d="M2355 2790 c3 -5 8 -10 11 -10 2 0 4 5 4 10 0 6 -5 10 -11 10 -5 0
-7 -4 -4 -10z"/>
<path d="M2325 2760 c3 -5 8 -10 11 -10 2 0 4 5 4 10 0 6 -5 10 -11 10 -5 0
-7 -4 -4 -10z"/>
<path d="M2182 2583 c1 -76 3 -121 5 -100 2 20 8 37 13 37 4 0 11 7 14 16 5
14 4 15 -9 4 -13 -10 -15 -9 -15 8 0 11 6 23 13 25 10 4 10 6 0 6 -9 1 -13 18
-13 52 0 36 4 49 13 46 6 -2 11 -10 9 -16 -1 -7 2 -9 9 -6 7 5 3 16 -13 34
-13 14 -24 27 -25 29 0 2 -1 -59 -1 -135z"/>
<path d="M2358 2690 c2 -16 6 -30 8 -30 2 0 4 14 4 30 0 17 -4 30 -8 30 -5 0
-7 -13 -4 -30z"/>
<path d="M2250 2640 c0 -5 5 -10 11 -10 5 0 7 5 4 10 -3 6 -8 10 -11 10 -2 0
-4 -4 -4 -10z"/>
<path d="M2319 2633 c-7 -10 -9 -15 -5 -11 5 4 15 3 22 -3 9 -8 11 -5 7 10 -6
25 -7 25 -24 4z"/>
<path d="M2361 2634 c0 -11 3 -14 6 -6 3 7 2 16 -1 19 -3 4 -6 -2 -5 -13z"/>
<path d="M2221 2604 c18 -22 50 -38 44 -22 -3 7 -17 18 -31 25 -22 10 -24 10
-13 -3z"/>
<path d="M2308 2574 c9 -7 19 -8 20 -3 2 5 8 7 13 3 5 -3 9 -1 9 4 0 5 -13 9
-30 9 -26 0 -27 -2 -12 -13z"/>
<path d="M2223 2499 c-2 -23 3 -25 10 -4 4 8 3 16 -1 19 -4 3 -9 -4 -9 -15z"/>
<path d="M2260 2516 c0 -2 8 -10 18 -17 15 -13 16 -12 3 4 -13 16 -21 21 -21
13z"/>
<path d="M2362 2475 c0 -16 2 -22 5 -12 2 9 2 23 0 30 -3 6 -5 -1 -5 -18z"/>
<path d="M2241 2464 c0 -11 3 -14 6 -6 3 7 2 16 -1 19 -3 4 -6 -2 -5 -13z"/>
<path d="M2290 2470 c0 -5 5 -10 11 -10 5 0 7 5 4 10 -3 6 -8 10 -11 10 -2 0
-4 -4 -4 -10z"/>
<path d="M3093 3423 c9 -2 25 -2 35 0 9 3 1 5 -18 5 -19 0 -27 -2 -17 -5z"/>
<path d="M3188 3423 c7 -3 16 -2 19 1 4 3 -2 6 -13 5 -11 0 -14 -3 -6 -6z"/>
<path d="M3020 3230 l0 -170 93 0 c159 0 222 51 222 180 0 75 -17 109 -68 140
-26 17 -51 20 -139 20 l-108 0 0 -170z"/>
<path d="M3350 3270 c0 -11 4 -20 9 -20 5 0 7 9 4 20 -3 11 -7 20 -9 20 -2 0
-4 -9 -4 -20z"/>
<path d="M3043 3043 c15 -2 37 -2 50 0 12 2 0 4 -28 4 -27 0 -38 -2 -22 -4z"/>
<path d="M3163 3043 c9 -2 25 -2 35 0 9 3 1 5 -18 5 -19 0 -27 -2 -17 -5z"/>
<path d="M3078 2893 c7 -3 16 -2 19 1 4 3 -2 6 -13 5 -11 0 -14 -3 -6 -6z"/>
<path d="M3170 2841 c0 -6 4 -13 10 -16 6 -3 7 1 4 9 -7 18 -14 21 -14 7z"/>
<path d="M3200 2771 c0 -5 5 -13 10 -16 6 -3 10 -2 10 4 0 5 -4 13 -10 16 -5
3 -10 2 -10 -4z"/>
<path d="M3309 2728 c-5 -18 -6 -38 -1 -34 7 8 12 36 6 36 -2 0 -4 -1 -5 -2z"/>
<path d="M3410 2725 c0 -5 10 -21 21 -35 13 -17 17 -18 10 -5 -17 33 -31 51
-31 40z"/>
<path d="M3269 2653 c-13 -16 -12 -17 4 -4 16 13 21 21 13 21 -2 0 -10 -8 -17
-17z"/>
<path d="M2899 2603 c-13 -16 -12 -17 4 -4 16 13 21 21 13 21 -2 0 -10 -8 -17
-17z"/>
<path d="M3341 2602 c6 -10 18 -19 25 -19 19 0 18 2 -11 21 -25 16 -25 16 -14
-2z"/>
<path d="M2846 2597 c3 -10 9 -15 12 -12 3 3 0 11 -7 18 -10 9 -11 8 -5 -6z"/>
<path d="M3410 2606 c0 -2 8 -10 18 -17 15 -13 16 -12 3 4 -13 16 -21 21 -21
13z"/>
<path d="M3361 2554 c0 -11 3 -14 6 -6 3 7 2 16 -1 19 -3 4 -6 -2 -5 -13z"/>
<path d="M3316 2527 c3 -10 9 -15 12 -12 3 3 0 11 -7 18 -10 9 -11 8 -5 -6z"/>
<path d="M3510 2534 c0 -6 7 -19 16 -30 14 -18 14 -18 3 6 -14 31 -19 36 -19
24z"/>
<path d="M3457 2473 c-12 -12 -7 -22 8 -17 8 4 15 10 15 15 0 11 -14 12 -23 2z"/>
<path d="M3540 2471 c0 -6 4 -13 10 -16 6 -3 7 1 4 9 -7 18 -14 21 -14 7z"/>
<path d="M3415 2460 c3 -5 11 -10 16 -10 6 0 7 5 4 10 -3 6 -11 10 -16 10 -6
0 -7 -4 -4 -10z"/>
<path d="M4146 3306 c-6 -29 -105 -405 -122 -458 -5 -17 6 -18 131 -18 126 0
137 1 133 18 -3 9 -31 121 -63 247 -32 127 -61 234 -65 238 -4 5 -10 -7 -14
-27z"/>
<path d="M4122 3300 c0 -14 2 -19 5 -12 2 6 2 18 0 25 -3 6 -5 1 -5 -13z"/>
<path d="M4336 3307 c3 -10 9 -15 12 -12 3 3 0 11 -7 18 -10 9 -11 8 -5 -6z"/>
<path d="M4076 3135 c-9 -26 -7 -32 5 -12 6 10 9 21 6 23 -2 3 -7 -2 -11 -11z"/>
<path d="M4042 2990 c0 -14 2 -19 5 -12 2 6 2 18 0 25 -3 6 -5 1 -5 -13z"/>
<path d="M3861 2963 c-1 -6 -4 -20 -7 -30 -5 -17 -5 -17 6 0 6 10 9 23 6 30
-3 9 -5 9 -5 0z"/>
<path d="M4471 2864 c0 -11 3 -14 6 -6 3 7 2 16 -1 19 -3 4 -6 -2 -5 -13z"/>
<path d="M4301 2854 c0 -11 3 -14 6 -6 3 7 2 16 -1 19 -3 4 -6 -2 -5 -13z"/>
<path d="M4060 2801 c0 -6 4 -13 10 -16 6 -3 7 1 4 9 -7 18 -14 21 -14 7z"/>
<path d="M4248 2803 c7 -3 16 -2 19 1 4 3 -2 6 -13 5 -11 0 -14 -3 -6 -6z"/>
<path d="M3983 2673 c9 -2 25 -2 35 0 9 3 1 5 -18 5 -19 0 -27 -2 -17 -5z"/>
<path d="M4058 2673 c12 -2 30 -2 40 0 9 3 -1 5 -23 4 -22 0 -30 -2 -17 -4z"/>
<path d="M4138 2673 c12 -2 32 -2 45 0 12 2 2 4 -23 4 -25 0 -35 -2 -22 -4z"/>
<path d="M4218 2673 c6 -2 18 -2 25 0 6 3 1 5 -13 5 -14 0 -19 -2 -12 -5z"/>
<path d="M4278 2673 c12 -2 30 -2 40 0 9 3 -1 5 -23 4 -22 0 -30 -2 -17 -4z"/>
<path d="M4547 2599 c4 -13 8 -18 11 -10 2 7 -1 18 -6 23 -8 8 -9 4 -5 -13z"/>
<path d="M3928 2583 c5 -21 7 -23 10 -9 2 10 0 22 -6 28 -6 6 -7 0 -4 -19z"/>
<path d="M4410 2591 c0 -6 4 -13 10 -16 6 -3 7 1 4 9 -7 18 -14 21 -14 7z"/>
<path d="M3825 2559 c-4 -6 -5 -12 -2 -15 2 -3 7 2 10 11 7 17 1 20 -8 4z"/>
<path d="M3913 2518 c-2 -18 0 -20 7 -8 12 18 13 30 2 30 -4 0 -9 -10 -9 -22z"/>
<path d="M4387 2520 c3 -11 9 -20 15 -20 5 0 4 9 -2 20 -6 11 -12 20 -14 20
-2 0 -2 -9 1 -20z"/>
<path d="M4566 2523 c-6 -14 -5 -15 5 -6 7 7 10 15 7 18 -3 3 -9 -2 -12 -12z"/>
<path d="M3730 2521 c0 -6 4 -13 10 -16 6 -3 7 1 4 9 -7 18 -14 21 -14 7z"/>
<path d="M3721 2493 c-1 -6 -4 -20 -7 -30 -5 -17 -5 -17 6 0 6 10 9 23 6 30
-3 9 -5 9 -5 0z"/>
<path d="M4586 2465 c-3 -8 -1 -15 4 -15 6 0 10 7 10 15 0 8 -2 15 -4 15 -2 0
-6 -7 -10 -15z"/>
<path d="M6429 3503 c-13 -16 -12 -17 4 -4 16 13 21 21 13 21 -2 0 -10 -8 -17
-17z"/>
<path d="M5732 3380 c0 -14 2 -19 5 -12 2 6 2 18 0 25 -3 6 -5 1 -5 -13z"/>
<path d="M5906 3205 c-3 -8 -1 -15 4 -15 6 0 10 7 10 15 0 8 -2 15 -4 15 -2 0
-6 -7 -10 -15z"/>
<path d="M5980 3105 c-7 -9 -11 -17 -9 -20 3 -2 10 5 17 15 14 24 10 26 -8 5z"/>
<path d="M5733 3040 c0 -25 2 -35 4 -22 2 12 2 32 0 45 -2 12 -4 2 -4 -23z"/>
<path d="M5732 2970 c0 -14 2 -19 5 -12 2 6 2 18 0 25 -3 6 -5 1 -5 -13z"/>
<path d="M5732 2915 c0 -16 2 -22 5 -12 2 9 2 23 0 30 -3 6 -5 -1 -5 -18z"/>
<path d="M5731 2854 c0 -11 3 -14 6 -6 3 7 2 16 -1 19 -3 4 -6 -2 -5 -13z"/>
<path d="M5939 2823 c-13 -16 -12 -17 4 -4 16 13 21 21 13 21 -2 0 -10 -8 -17
-17z"/>
<path d="M6200 2830 c-9 -6 -10 -10 -3 -10 6 0 15 5 18 10 8 12 4 12 -15 0z"/>
<path d="M5733 2795 c0 -22 2 -30 4 -17 2 12 2 30 0 40 -3 9 -5 -1 -4 -23z"/>
<path d="M5732 2730 c0 -14 2 -19 5 -12 2 6 2 18 0 25 -3 6 -5 1 -5 -13z"/>
<path d="M6354 2728 c9 -14 14 -27 11 -30 -3 -3 1 -8 10 -11 14 -6 14 -4 0 23
-8 16 -20 32 -26 36 -6 3 -4 -5 5 -18z"/>
<path d="M5912 2715 c0 -16 2 -22 5 -12 2 9 2 23 0 30 -3 6 -5 -1 -5 -18z"/>
<path d="M5731 2684 c0 -11 3 -14 6 -6 3 7 2 16 -1 19 -3 4 -6 -2 -5 -13z"/>
<path d="M5730 2629 c0 -11 4 -18 10 -14 5 3 7 12 3 20 -7 21 -13 19 -13 -6z"/>
<path d="M5912 2615 c0 -16 2 -22 5 -12 2 9 2 23 0 30 -3 6 -5 -1 -5 -18z"/>
<path d="M6216 2607 c3 -10 9 -15 12 -12 3 3 0 11 -7 18 -10 9 -11 8 -5 -6z"/>
<path d="M6245 2561 c-3 -5 -2 -12 3 -15 5 -3 9 1 9 9 0 17 -3 19 -12 6z"/>
<path d="M5734 2536 c-3 -8 -4 -31 -2 -52 3 -36 4 -35 8 14 5 53 4 63 -6 38z"/>
<path d="M6392 2545 c4 -4 3 -14 -4 -22 -8 -11 -7 -12 6 -7 19 7 21 20 4 30
-7 4 -10 4 -6 -1z"/>
<path d="M6305 2510 c-3 -5 -1 -10 4 -10 6 0 11 5 11 10 0 6 -2 10 -4 10 -3 0
-8 -4 -11 -10z"/>
<path d="M5890 2479 c0 -4 7 -9 15 -13 9 -3 15 0 15 8 0 7 -7 13 -15 13 -8 0
-15 -4 -15 -8z"/>
<path d="M6468 2463 c7 -3 16 -2 19 1 4 3 -2 6 -13 5 -11 0 -14 -3 -6 -6z"/>
<path d="M7035 3480 c-3 -5 -1 -10 4 -10 6 0 11 5 11 10 0 6 -2 10 -4 10 -3 0
-8 -4 -11 -10z"/>
<path d="M7086 3432 c-3 -5 1 -9 9 -9 8 0 12 4 9 9 -3 4 -7 8 -9 8 -2 0 -6 -4
-9 -8z"/>
<path d="M7228 3068 c5 -71 10 -77 11 -15 0 31 -2 57 -7 57 -4 0 -6 -19 -4
-42z"/>
<path d="M6994 2971 c5 -8 -7 -11 -38 -9 -26 0 -49 -1 -52 -5 -3 -3 71 -6 165
-6 94 -1 171 2 171 6 0 5 -47 6 -104 5 -67 -3 -112 0 -126 8 -15 8 -20 8 -16
1z"/>
<path d="M6746 2727 c3 -10 9 -15 12 -12 3 3 0 11 -7 18 -10 9 -11 8 -5 -6z"/>
<path d="M6857 2669 c7 -7 15 -10 18 -7 3 3 -2 9 -12 12 -14 6 -15 5 -6 -5z"/>
<path d="M6905 2610 c-3 -6 1 -7 9 -4 18 7 21 14 7 14 -6 0 -13 -4 -16 -10z"/>
<path d="M6940 2611 c0 -4 11 -6 25 -3 14 2 25 6 25 8 0 2 -11 4 -25 4 -14 0
-25 -4 -25 -9z"/>
<path d="M7058 2613 c6 -2 18 -2 25 0 6 3 1 5 -13 5 -14 0 -19 -2 -12 -5z"/>
<path d="M7120 2611 c0 -5 9 -7 20 -4 11 3 20 7 20 9 0 2 -9 4 -20 4 -11 0
-20 -4 -20 -9z"/>
<path d="M7172 2614 c8 -7 138 -9 138 -2 0 4 -32 7 -71 7 -39 0 -69 -2 -67 -5z"/>
<path d="M6695 2600 c-3 -5 -1 -10 4 -10 6 0 11 5 11 10 0 6 -2 10 -4 10 -3 0
-8 -4 -11 -10z"/>
<path d="M7295 2581 c-3 -5 -1 -12 5 -16 5 -3 10 1 10 9 0 18 -6 21 -15 7z"/>
<path d="M6868 2573 c7 -3 16 -2 19 1 4 3 -2 6 -13 5 -11 0 -14 -3 -6 -6z"/>
<path d="M7150 2570 c0 -5 5 -10 11 -10 5 0 7 5 4 10 -3 6 -8 10 -11 10 -2 0
-4 -4 -4 -10z"/>
<path d="M6980 2546 c0 -2 8 -10 18 -17 15 -13 16 -12 3 4 -13 16 -21 21 -21
13z"/>
<path d="M7300 2523 c0 -19 -3 -24 -9 -15 -7 11 -9 11 -14 -2 -4 -9 -1 -15 5
-13 6 1 15 -9 19 -23 5 -19 7 -12 8 28 1 28 -1 52 -4 52 -3 0 -5 -12 -5 -27z"/>
<path d="M6920 2525 c-9 -11 -9 -15 -1 -15 7 0 9 -5 5 -12 -4 -7 -3 -8 5 -4 6
4 8 12 5 18 -4 6 0 14 7 19 8 5 9 9 3 9 -6 0 -17 -7 -24 -15z"/>
<path d="M6690 2505 c0 -14 2 -25 4 -25 2 0 6 11 8 25 3 14 1 25 -3 25 -5 0
-9 -11 -9 -25z"/>
<path d="M6790 2516 c0 -2 9 -6 20 -9 11 -3 18 -1 14 4 -5 9 -34 13 -34 5z"/>
<path d="M7233 2489 c-2 -23 3 -25 10 -4 4 8 3 16 -1 19 -4 3 -9 -4 -9 -15z"/>
<path d="M7158 2478 c3 -13 13 -18 36 -17 31 2 31 2 3 6 -21 3 -26 8 -18 17 7
8 5 12 -8 12 -12 0 -17 -6 -13 -18z"/>
<path d="M7200 2489 c0 -5 5 -7 10 -4 6 3 10 8 10 11 0 2 -4 4 -10 4 -5 0 -10
-5 -10 -11z"/>
<path d="M7057 2473 c-4 -3 -7 -11 -7 -17 0 -6 5 -5 12 2 6 6 9 14 7 17 -3 3
-9 2 -12 -2z"/>
<path d="M7522 3530 c0 -14 2 -19 5 -12 2 6 2 18 0 25 -3 6 -5 1 -5 -13z"/>
<path d="M8169 3445 c17 -33 31 -51 31 -40 0 6 -10 21 -21 35 -13 17 -17 18
-10 5z"/>
<path d="M7786 3441 c-8 -12 2 -18 28 -17 11 1 21 8 23 16 4 13 3 13 -5 1 -8
-12 -13 -12 -25 -2 -10 7 -18 8 -21 2z"/>
<path d="M7930 3410 c8 -5 20 -10 25 -10 6 0 3 5 -5 10 -8 5 -19 10 -25 10 -5
0 -3 -5 5 -10z"/>
<path d="M7723 3395 c-2 -6 -2 -83 -1 -170 l3 -160 102 0 c109 0 133 9 175 66
44 59 30 186 -28 240 -23 21 -37 24 -136 29 -72 3 -112 1 -115 -5z"/>
<path d="M7970 3396 c0 -2 8 -10 18 -17 15 -13 16 -12 3 4 -13 16 -21 21 -21
13z"/>
<path d="M8202 3366 c7 -8 15 -12 17 -11 5 6 -10 25 -20 25 -5 0 -4 -6 3 -14z"/>
<path d="M7701 3354 c0 -11 3 -14 6 -6 3 7 2 16 -1 19 -3 4 -6 -2 -5 -13z"/>
<path d="M8221 3324 c0 -11 3 -14 6 -6 3 7 2 16 -1 19 -3 4 -6 -2 -5 -13z"/>
<path d="M7702 3310 c0 -14 2 -19 5 -12 2 6 2 18 0 25 -3 6 -5 1 -5 -13z"/>
<path d="M7523 3285 c0 -22 2 -30 4 -17 2 12 2 30 0 40 -3 9 -5 -1 -4 -23z"/>
<path d="M7702 3245 c0 -16 2 -22 5 -12 2 9 2 23 0 30 -3 6 -5 -1 -5 -18z"/>
<path d="M8195 3240 c3 -5 8 -10 11 -10 2 0 4 5 4 10 0 6 -5 10 -11 10 -5 0
-7 -4 -4 -10z"/>
<path d="M7522 3215 c0 -16 2 -22 5 -12 2 9 2 23 0 30 -3 6 -5 -1 -5 -18z"/>
<path d="M7692 3195 c-11 -12 -10 -15 3 -15 8 0 15 7 15 15 0 18 -2 18 -18 0z"/>
<path d="M8040 3194 c0 -8 5 -12 10 -9 6 4 8 11 5 16 -9 14 -15 11 -15 -7z"/>
<path d="M8180 3200 c0 -5 5 -10 10 -10 6 0 10 5 10 10 0 6 -4 10 -10 10 -5 0
-10 -4 -10 -10z"/>
<path d="M7702 3150 c0 -14 2 -19 5 -12 2 6 2 18 0 25 -3 6 -5 1 -5 -13z"/>
<path d="M8190 3160 c0 -5 5 -10 10 -10 6 0 10 5 10 10 0 6 -4 10 -10 10 -5 0
-10 -4 -10 -10z"/>
<path d="M8026 3143 c-6 -14 -5 -15 5 -6 7 7 10 15 7 18 -3 3 -9 -2 -12 -12z"/>
<path d="M8221 3144 c0 -11 3 -14 6 -6 3 7 2 16 -1 19 -3 4 -6 -2 -5 -13z"/>
<path d="M7522 3090 c0 -19 2 -27 5 -17 2 9 2 25 0 35 -3 9 -5 1 -5 -18z"/>
<path d="M7701 3104 c0 -11 3 -14 6 -6 3 7 2 16 -1 19 -3 4 -6 -2 -5 -13z"/>
<path d="M7989 3094 c-16 -17 -18 -23 -7 -19 9 4 19 13 22 21 3 9 11 12 17 8
8 -4 9 -3 5 4 -9 16 -9 16 -37 -14z"/>
<path d="M8211 3104 c0 -11 3 -14 6 -6 3 7 2 16 -1 19 -3 4 -6 -2 -5 -13z"/>
<path d="M8077 3103 c-10 -9 -9 -33 1 -33 4 0 8 9 8 20 0 23 0 22 -9 13z"/>
<path d="M8190 3059 c0 -5 5 -7 10 -4 6 3 10 8 10 11 0 2 -4 4 -10 4 -5 0 -10
-5 -10 -11z"/>
<path d="M7768 3043 c23 -2 61 -2 85 0 23 2 4 4 -43 4 -47 0 -66 -2 -42 -4z"/>
<path d="M7521 3024 c0 -11 3 -14 6 -6 3 7 2 16 -1 19 -3 4 -6 -2 -5 -13z"/>
<path d="M7755 3000 c3 -5 8 -10 11 -10 2 0 4 5 4 10 0 6 -5 10 -11 10 -5 0
-7 -4 -4 -10z"/>
<path d="M8095 3001 c-3 -5 -2 -12 3 -15 5 -3 9 1 9 9 0 17 -3 19 -12 6z"/>
<path d="M7996 2992 c-3 -5 1 -9 9 -9 8 0 12 4 9 9 -3 4 -7 8 -9 8 -2 0 -6 -4
-9 -8z"/>
<path d="M8118 2967 c-7 -7 -22 -18 -33 -25 -11 -6 -15 -12 -8 -12 12 0 73 49
61 50 -4 0 -13 -6 -20 -13z"/>
<path d="M7523 2935 c0 -22 2 -30 4 -17 2 12 2 30 0 40 -3 9 -5 -1 -4 -23z"/>
<path d="M7522 2870 c0 -14 2 -19 5 -12 2 6 2 18 0 25 -3 6 -5 1 -5 -13z"/>
<path d="M8029 2881 c7 -5 11 -13 8 -18 -3 -5 0 -10 8 -10 10 0 11 5 4 19 -5
10 -15 18 -22 18 -8 0 -8 -3 2 -9z"/>
<path d="M7660 2866 c0 -2 7 -7 16 -10 8 -3 12 -2 9 4 -6 10 -25 14 -25 6z"/>
<path d="M7876 2837 c3 -10 9 -15 12 -12 3 3 0 11 -7 18 -10 9 -11 8 -5 -6z"/>
<path d="M7524 2670 c-1 -96 1 -160 3 -142 2 17 10 32 16 32 9 0 9 2 0 8 -9 5
-13 50 -16 142 -2 117 -3 111 -3 -40z"/>
<path d="M7702 2810 c0 -19 2 -27 5 -17 2 9 2 25 0 35 -3 9 -5 1 -5 -18z"/>
<path d="M8060 2831 c0 -6 4 -13 10 -16 6 -3 7 1 4 9 -7 18 -14 21 -14 7z"/>
<path d="M7970 2759 c0 -5 5 -7 10 -4 6 3 10 8 10 11 0 2 -4 4 -10 4 -5 0 -10
-5 -10 -11z"/>
<path d="M7610 2755 c0 -7 30 -13 34 -7 3 4 -4 9 -15 9 -10 1 -19 0 -19 -2z"/>
<path d="M7986 2723 c-6 -14 -5 -15 5 -6 7 7 10 15 7 18 -3 3 -9 -2 -12 -12z"/>
<path d="M8085 2733 c11 -3 28 -15 38 -26 17 -22 17 -22 6 6 -9 20 -19 27 -38
26 -21 -1 -22 -2 -6 -6z"/>
<path d="M8000 2670 c-9 -6 -10 -10 -3 -10 6 0 15 5 18 10 8 12 4 12 -15 0z"/>
<path d="M8147 2660 c3 -11 9 -22 13 -25 5 -3 6 4 3 15 -3 11 -9 22 -13 25 -5
3 -6 -4 -3 -15z"/>
<path d="M7700 2589 c0 -37 -3 -48 -12 -43 -10 6 -10 5 -2 -7 7 -8 14 -23 17
-34 2 -11 5 15 6 58 0 42 -1 77 -4 77 -3 0 -5 -23 -5 -51z"/>
<path d="M8068 2613 c7 -3 16 -2 19 1 4 3 -2 6 -13 5 -11 0 -14 -3 -6 -6z"/>
<path d="M7990 2590 c6 -11 13 -20 16 -20 2 0 0 9 -6 20 -6 11 -13 20 -16 20
-2 0 0 -9 6 -20z"/>
<path d="M7658 2593 c7 -3 16 -2 19 1 4 3 -2 6 -13 5 -11 0 -14 -3 -6 -6z"/>
<path d="M8081 2573 c-19 -21 -20 -25 -6 -19 10 3 24 1 31 -5 10 -8 14 -8 14
0 0 6 -5 11 -11 11 -6 0 -9 9 -6 20 7 26 5 25 -22 -7z"/>
<path d="M8030 2550 c0 -5 5 -10 11 -10 5 0 7 5 4 10 -3 6 -8 10 -11 10 -2 0
-4 -4 -4 -10z"/>
<path d="M8216 2535 c4 -11 8 -32 8 -47 1 -14 5 -30 10 -35 5 -5 6 -2 1 6 -4
7 -3 16 3 20 6 4 3 19 -10 41 -10 19 -16 26 -12 15z"/>
<path d="M8186 2530 c15 -18 -2 -38 -29 -34 -9 1 -19 -2 -23 -7 -10 -17 43 -9
60 10 15 17 15 19 -1 32 -16 12 -17 12 -7 -1z"/>
<path d="M8147 2519 c7 -7 15 -10 18 -7 3 3 -2 9 -12 12 -14 6 -15 5 -6 -5z"/>
<path d="M8032 2496 c15 -30 16 -30 14 -3 0 13 -6 24 -13 24 -9 0 -9 -6 -1
-21z"/>
<path d="M7522 2470 c0 -14 2 -19 5 -12 2 6 2 18 0 25 -3 6 -5 1 -5 -13z"/>
<path d="M7548 2483 c7 -3 16 -2 19 1 4 3 -2 6 -13 5 -11 0 -14 -3 -6 -6z"/>
<path d="M7701 2464 c0 -11 3 -14 6 -6 3 7 2 16 -1 19 -3 4 -6 -2 -5 -13z"/>
<path d="M8138 2463 c6 -2 18 -2 25 0 6 3 1 5 -13 5 -14 0 -19 -2 -12 -5z"/>
</g>
</svg>
